<svg width="72" height="72" viewBox="0 0 72 72" fill="none" xmlns="http://www.w3.org/2000/svg">
<g clip-path="url(#clip0_2005_29)">
<path d="M61.5 0H48C44.691 0 42 2.691 42 6V11.355C42 11.829 42.225 12.279 42.606 12.558C42.987 12.846 43.479 12.93 43.935 12.789C45.72 12.243 47.292 11.997 47.997 11.997C49.65 11.997 50.997 13.341 50.997 14.997C50.997 16.653 49.65 17.997 47.997 17.997C47.292 17.997 45.72 17.751 43.935 17.205C43.476 17.064 42.987 17.145 42.606 17.436C42.225 17.718 42 18.165 42 18.639V23.994C42 27.303 44.691 29.994 48 29.994H51.408C51.15 31.161 51 32.226 51 32.994C51 36.303 53.691 38.994 57 38.994C60.309 38.994 63 36.303 63 32.994C63 32.226 62.85 31.161 62.592 29.994H66C69.309 29.994 72 27.303 72 23.994V10.5C72 4.71 67.29 0 61.5 0ZM69 24C69 25.656 67.653 27 66 27H60.645C60.171 27 59.724 27.225 59.439 27.606C59.157 27.987 59.07 28.482 59.208 28.935C59.751 30.72 59.997 32.292 59.997 32.997C59.997 34.653 58.65 35.997 56.997 35.997C55.344 35.997 53.997 34.653 53.997 32.997C53.997 32.292 54.246 30.717 54.786 28.935C54.924 28.482 54.84 27.987 54.555 27.606C54.27 27.225 53.823 27 53.349 27H47.994C46.341 27 44.994 25.656 44.994 24V20.589C46.161 20.85 47.229 21 47.994 21C51.303 21 53.994 18.309 53.994 15C53.994 11.691 51.303 9 47.994 9C47.229 9 46.161 9.15 44.994 9.411V6C44.994 4.344 46.341 3 47.994 3H61.494C65.628 3 68.994 6.363 68.994 10.5V24H69ZM51 42H45.645C45.171 42 44.724 42.225 44.439 42.606C44.157 42.987 44.07 43.482 44.208 43.935C44.751 45.72 44.997 47.292 44.997 47.997C44.997 49.653 43.65 50.997 41.997 50.997C40.344 50.997 38.997 49.653 38.997 47.997C38.997 47.292 39.246 45.717 39.786 43.935C39.924 43.482 39.84 42.987 39.555 42.606C39.27 42.225 38.823 42 38.349 42H29.994V21C29.994 17.691 27.303 15 23.994 15H10.5C4.71 15 0 19.71 0 25.5V61.5C0 67.29 4.71 72 10.5 72H46.5C52.29 72 57 67.29 57 61.5V48C57 44.691 54.309 42 51 42ZM3 25.5C3 21.363 6.366 18 10.5 18H24C25.653 18 27 19.344 27 21V42H20.592C20.85 40.833 21 39.768 21 39C21 35.691 18.309 33 15 33C11.691 33 9 35.691 9 39C9 39.768 9.15 40.833 9.408 42H3V25.5ZM27 69H10.5C6.366 69 3 65.637 3 61.5V45H11.355C11.829 45 12.276 44.775 12.561 44.394C12.843 44.013 12.93 43.518 12.792 43.065C12.249 41.28 12.003 39.708 12.003 39.003C12.003 37.347 13.35 36.003 15.003 36.003C16.656 36.003 18.003 37.347 18.003 39.003C18.003 39.708 17.754 41.283 17.214 43.065C17.076 43.518 17.16 44.013 17.445 44.394C17.73 44.775 18.177 45 18.651 45H27.006V51.411C25.839 51.15 24.771 51 24.006 51C20.697 51 18.006 53.691 18.006 57C18.006 60.309 20.697 63 24.006 63C24.771 63 25.839 62.85 27.006 62.589V69H27ZM54 61.5C54 65.637 50.634 69 46.5 69H30V60.645C30 60.171 29.775 59.721 29.394 59.442C29.013 59.154 28.518 59.073 28.065 59.211C26.28 59.757 24.708 60.003 24.003 60.003C22.35 60.003 21.003 58.659 21.003 57.003C21.003 55.347 22.35 54.003 24.003 54.003C24.708 54.003 26.28 54.249 28.065 54.795C28.518 54.93 29.01 54.849 29.394 54.564C29.775 54.282 30 53.835 30 53.361V45.006H36.408C36.15 46.173 36 47.238 36 48.006C36 51.315 38.691 54.006 42 54.006C45.309 54.006 48 51.315 48 48.006C48 47.238 47.85 46.173 47.592 45.006H51C52.653 45.006 54 46.35 54 48.006V61.506V61.5Z" fill="black"/>
</g>
<defs>
<clipPath id="clip0_2005_29">
<rect width="72" height="72" fill="white"/>
</clipPath>
</defs>
</svg>
