<svg width="72" height="72" viewBox="0 0 72 72" fill="none" xmlns="http://www.w3.org/2000/svg">
<g clip-path="url(#clip0_2005_2)">
<path d="M32.238 28.452C33.265 29.481 34.6154 29.997 35.9658 29.997C37.3161 29.997 38.6665 29.481 39.6935 28.452L49.3915 18.735C51.4485 16.674 51.4485 13.323 49.3915 11.265L39.6935 1.54801C37.6395 -0.512992 34.289 -0.512992 32.238 1.54801L22.54 11.265C20.483 13.326 20.483 16.677 22.54 18.735L32.238 28.452ZM24.6568 13.386L34.3549 3.66901C34.798 3.22501 35.3819 3.00001 35.9658 3.00001C36.5496 3.00001 37.1335 3.22201 37.5766 3.66901L47.2747 13.386C48.1639 14.277 48.1639 15.723 47.2747 16.614L37.5766 26.331C36.6873 27.222 35.2442 27.222 34.3549 26.331L24.6568 16.614C23.7676 15.723 23.7676 14.277 24.6568 13.386ZM71.8626 16.5V46.803C71.8626 52.812 69.5272 58.461 65.2875 62.712L56.4547 71.562C56.1613 71.856 55.7781 72 55.3948 72C55.0116 72 54.6283 71.853 54.3349 71.562C53.751 70.977 53.751 70.026 54.3349 69.441L63.1676 60.591C66.8444 56.907 68.8655 52.011 68.8655 46.803V16.5C68.8655 14.019 66.8504 12 64.3743 12C61.8981 12 59.883 14.019 59.883 16.5C59.883 16.5 59.8771 40.629 59.8681 40.692C59.8262 42.336 59.2483 43.971 58.1345 45.3L50.2329 53.538C49.9395 53.844 49.5472 53.997 49.155 53.997C48.7807 53.997 48.4065 53.859 48.116 53.577C47.5202 53.004 47.5022 52.053 48.0741 51.456L55.9068 43.293C57.9668 41.229 56.4727 38.301 55.7421 37.488C54.9427 36.597 53.8438 36.066 52.6522 36C51.4844 35.943 50.3107 36.339 49.4185 37.14L41.2474 44.676C39.7025 46.098 38.4659 47.775 37.5586 49.662C38.4479 51.921 38.924 54.348 38.924 56.817V70.494C38.924 71.322 38.2533 71.994 37.4269 71.994C36.6005 71.994 35.9298 71.322 35.9298 70.494V56.817C35.9298 52.218 33.9926 47.79 30.6122 44.673L22.4262 37.125C21.5519 36.336 20.3992 35.94 19.2075 36C18.0158 36.066 16.914 36.594 16.1175 37.488C14.6384 39.141 14.5965 41.67 16.0217 43.368L23.7885 51.453C24.3604 52.05 24.3454 53.001 23.7466 53.574C23.1568 54.147 22.2016 54.132 21.6298 53.532L13.797 45.369C12.6683 44.028 12.0784 42.405 12.0095 40.779C11.9916 40.686 11.9826 16.491 11.9826 16.491C11.9826 14.01 9.96753 11.991 7.49137 11.991C5.0152 11.991 3.00014 14.01 3.00014 16.491V46.803C3.00014 52.011 5.02418 56.907 8.69801 60.591L17.5308 69.441C18.1146 70.026 18.1146 70.977 17.5308 71.562C17.2373 71.856 16.8541 72 16.4708 72C16.0876 72 15.7043 71.853 15.4109 71.562L6.57815 62.712C2.33843 58.461 0.00299072 52.812 0.00299072 46.803V16.5C0.00299072 12.366 3.35944 9.00001 7.48837 9.00001C11.6173 9.00001 14.9738 12.366 14.9738 16.5V34.491C16.1445 33.609 17.5487 33.093 19.0428 33.012C21.0519 32.886 22.9562 33.576 24.4413 34.911L32.6422 42.474C33.9178 43.65 35.0196 44.988 35.9298 46.437C36.843 44.982 37.9449 43.656 39.2234 42.474L47.4094 34.926C48.9125 33.576 50.8227 32.883 52.8228 33.015C54.3199 33.096 55.7242 33.612 56.8919 34.494V16.5C56.8919 12.366 60.2483 9.00001 64.3773 9.00001C68.5062 9.00001 71.8626 12.366 71.8626 16.5Z" fill="black"/>
</g>
<defs>
<clipPath id="clip0_2005_2">
<rect width="72" height="72" fill="white"/>
</clipPath>
</defs>
</svg>
