<svg width="72" height="72" viewBox="0 0 72 72" fill="none" xmlns="http://www.w3.org/2000/svg">
<g clip-path="url(#clip0_2005_20)">
<path d="M33 64.5C33 65.34 32.34 66 31.5 66H13.5C6.06 66 0 59.94 0 52.5V13.5C0 6.06 6.06 0 13.5 0H52.5C59.94 0 66 6.06 66 13.5V25.5C66 26.34 65.34 27 64.5 27C63.66 27 63 26.34 63 25.5V13.5C63 7.71 58.29 3 52.5 3H13.5C7.71 3 3 7.71 3 13.5V52.5C3 58.29 7.71 63 13.5 63H31.5C32.34 63 33 63.66 33 64.5ZM33 52.5C33 53.34 32.34 54 31.5 54H16.5C14.01 54 12 51.99 12 49.5V16.5C12 14.01 14.01 12 16.5 12H25.5C26.1 12 26.64 12.36 26.88 12.93C27.12 13.5 26.97 14.13 26.55 14.55L15 26.1V49.47C15 50.31 15.66 50.97 16.5 50.97H31.5C32.34 50.97 33 51.63 33 52.47V52.5ZM15 21.87L21.87 15H16.5C15.66 15 15 15.66 15 16.5V21.87ZM42 37.5V28.5C42 27.66 41.34 27 40.5 27C39.66 27 39 27.66 39 28.5V37.5C39 38.34 38.34 39 37.5 39H28.5C27.66 39 27 38.34 27 37.5V30.99C27 29.79 27.48 28.65 28.32 27.81L39.81 16.32C40.65 15.48 41.82 15 42.99 15H49.5C50.34 15 51 15.66 51 16.5V22.5C51 23.34 51.66 24 52.5 24C53.34 24 54 23.34 54 22.5V16.5C54 14.01 51.99 12 49.5 12H42.99C40.98 12 39.12 12.78 37.68 14.19L26.19 25.68C24.78 27.09 24 28.98 24 30.99V37.5C24 39.99 26.01 42 28.5 42H37.5C39.99 42 42 39.99 42 37.5ZM55.5 55.5C53.85 55.5 52.5 56.85 52.5 58.5C52.5 60.15 53.85 61.5 55.5 61.5C57.15 61.5 58.5 60.15 58.5 58.5C58.5 56.85 57.15 55.5 55.5 55.5ZM72 55.5V61.5C72 67.29 67.29 72 61.5 72H49.5C43.71 72 39 67.29 39 61.5V55.5C39 51.33 41.46 47.7 45 46.02V40.5C45 34.71 49.71 30 55.5 30C61.29 30 66 34.71 66 40.5V46.02C69.54 47.7 72 51.33 72 55.5ZM48 45.12C48.48 45.06 48.99 45 49.5 45H61.5C62.01 45 62.52 45.03 63 45.12V40.5C63 36.36 59.64 33 55.5 33C51.36 33 48 36.36 48 40.5V45.12ZM69 55.5C69 51.36 65.64 48 61.5 48H49.5C45.36 48 42 51.36 42 55.5V61.5C42 65.64 45.36 69 49.5 69H61.5C65.64 69 69 65.64 69 61.5V55.5Z" fill="black"/>
</g>
<defs>
<clipPath id="clip0_2005_20">
<rect width="72" height="72" fill="white"/>
</clipPath>
</defs>
</svg>
