<svg width="72" height="72" viewBox="0 0 72 72" fill="none" xmlns="http://www.w3.org/2000/svg">
<path d="M58.5 6.27301H28.5C21.057 6.27301 15 12.33 15 19.773V40.773C15 48.216 21.057 54.273 28.5 54.273H58.5C65.943 54.273 72 48.216 72 40.773V19.773C72 12.33 65.943 6.27301 58.5 6.27301ZM54 51.273H33V49.5C33 43.71 37.71 39 43.5 39C49.29 39 54 43.71 54 49.5V51.273ZM69 40.773C69 46.563 64.29 51.273 58.5 51.273H57V49.5C57 42.057 50.943 36 43.5 36C36.057 36 30 42.057 30 49.5V51.273H28.5C22.71 51.273 18 46.563 18 40.773V19.773C18 13.983 22.71 9.27301 28.5 9.27301H58.5C64.29 9.27301 69 13.983 69 19.773V40.773ZM52.563 60.78C53.112 61.401 53.052 62.349 52.431 62.898C49.965 65.076 46.794 66.273 43.503 66.273H13.5C6.057 66.273 0 60.216 0 52.773V31.773C0 26.967 2.586 22.485 6.75 20.082C7.467 19.662 8.385 19.911 8.799 20.631C9.216 21.348 8.97 22.266 8.253 22.68C5.013 24.552 3.003 28.038 3.003 31.776V52.776C3.003 58.566 7.713 63.276 13.503 63.276H43.503C46.062 63.276 48.528 62.343 50.448 60.651C51.069 60.102 52.014 60.168 52.566 60.783L52.563 60.78ZM43.5 15C38.538 15 34.5 19.038 34.5 24C34.5 28.962 38.538 33 43.5 33C48.462 33 52.5 28.962 52.5 24C52.5 19.038 48.462 15 43.5 15ZM43.5 30C40.191 30 37.5 27.309 37.5 24C37.5 20.691 40.191 18 43.5 18C46.809 18 49.5 20.691 49.5 24C49.5 27.309 46.809 30 43.5 30Z" fill="black"/>
</svg>
